<svg version="1.1" xmlns="http://www.w3.org/2000/svg" viewBox="0 0 2144.475874098548 879.4350245359492" width="2144.475874098548" height="879.4350245359492">
  <!-- svg-source:excalidraw -->
  
  <defs>
    <style class="style-fonts">
      @font-face {
        font-family: "Virgil";
        src: url("https://excalidraw.com/Virgil.woff2");
      }
      @font-face {
        font-family: "Cascadia";
        src: url("https://excalidraw.com/Cascadia.woff2");
      }
      @font-face {
        font-family: "Assistant";
        src: url("https://excalidraw.com/Assistant-Regular.woff2");
      }
    </style>
    
  </defs>
  <g transform="translate(1215.477890218543 633.9112528543892) rotate(0 32.70833206176758 12.5)"><text x="0" y="17.52" font-family="Virgil, Segoe UI Emoji" font-size="20px" fill="#e03131" text-anchor="start" style="white-space: pre;" direction="ltr" dominant-baseline="alphabetic">VENDA</text></g><g stroke-linecap="round" transform="translate(1195.4911604665779 616.1284798066599) rotate(0 109.45146221115402 126.65327236464464)"><path d="M32 0 C91.45 -1.94, 153.77 -0.67, 186.9 0 M32 0 C70.54 0.67, 108.13 1.85, 186.9 0 M186.9 0 C210.14 -1.62, 217.16 12.53, 218.9 32 M186.9 0 C206.83 1.78, 219.05 11.39, 218.9 32 M218.9 32 C221.24 105.03, 219.73 175.99, 218.9 221.31 M218.9 32 C220.17 87.66, 220.42 141.24, 218.9 221.31 M218.9 221.31 C219.35 240.74, 207.65 254.89, 186.9 253.31 M218.9 221.31 C218.35 243.17, 208.08 253.55, 186.9 253.31 M186.9 253.31 C138.73 255.96, 91.49 255.57, 32 253.31 M186.9 253.31 C144.64 253.43, 103.34 252.82, 32 253.31 M32 253.31 C10.14 253.06, 1.97 243.32, 0 221.31 M32 253.31 C11.58 254.3, -2.09 240.8, 0 221.31 M0 221.31 C1.1 156.04, -0.08 89.79, 0 32 M0 221.31 C-0.48 163.2, 0.87 104.64, 0 32 M0 32 C0.94 8.72, 10.86 -1.5, 32 0 M0 32 C-1.43 8.6, 11.45 0.17, 32 0" stroke="#1e1e1e" stroke-width="2" fill="none"></path></g><g transform="translate(1215.477890218543 665.4112528543892) rotate(0 55.20833206176758 12.5)"><text x="0" y="17.52" font-family="Virgil, Segoe UI Emoji" font-size="20px" fill="#1e1e1e" text-anchor="start" style="white-space: pre;" direction="ltr" dominant-baseline="alphabetic">CD_VENDA</text></g><g transform="translate(1215.477890218543 698.8398242829605) rotate(0 73.39167022705078 12.5)"><text x="0" y="17.52" font-family="Virgil, Segoe UI Emoji" font-size="20px" fill="#1e1e1e" text-anchor="start" style="white-space: pre;" direction="ltr" dominant-baseline="alphabetic">CD_PRODUTO</text></g><g transform="translate(1215.477890218543 735.8398242829605) rotate(0 62.233333587646484 12.5)"><text x="0" y="17.52" font-family="Virgil, Segoe UI Emoji" font-size="20px" fill="#1e1e1e" text-anchor="start" style="white-space: pre;" direction="ltr" dominant-baseline="alphabetic">CD_EQUIPE</text></g><g transform="translate(1215.477890218543 768.5541099972463) rotate(0 68.91666412353516 12.499999999999972)"><text x="0" y="17.52" font-family="Virgil, Segoe UI Emoji" font-size="20px" fill="#1e1e1e" text-anchor="start" style="white-space: pre;" direction="ltr" dominant-baseline="alphabetic">CD_USUARIO</text></g><g transform="translate(1215.477890218543 802.6969671401035) rotate(0 72 12.5)"><text x="0" y="17.52" font-family="Virgil, Segoe UI Emoji" font-size="20px" fill="#1e1e1e" text-anchor="start" style="white-space: pre;" direction="ltr" dominant-baseline="alphabetic">DT_PERIODO</text></g><g transform="translate(1215.477890218543 833.9826814258178) rotate(0 91.06666564941406 12.5)"><text x="0" y="17.52" font-family="Virgil, Segoe UI Emoji" font-size="20px" fill="#1e1e1e" text-anchor="start" style="white-space: pre;" direction="ltr" dominant-baseline="alphabetic">NR_QUANTIDADE</text></g><g transform="translate(924.3062742303066 626.2683957115319) rotate(0 53.525001525878906 12.5)"><text x="0" y="17.52" font-family="Virgil, Segoe UI Emoji" font-size="20px" fill="#2f9e44" text-anchor="start" style="white-space: pre;" direction="ltr" dominant-baseline="alphabetic">OBJETIVO</text></g><g transform="translate(924.3062742303066 661.1255385686748) rotate(0 55.20833206176758 12.5)"><text x="0" y="17.52" font-family="Virgil, Segoe UI Emoji" font-size="20px" fill="#1e1e1e" text-anchor="start" style="white-space: pre;" direction="ltr" dominant-baseline="alphabetic">CD_VENDA</text></g><g transform="translate(924.3062742303066 694.5541099972463) rotate(0 73.39167022705078 12.5)"><text x="0" y="17.52" font-family="Virgil, Segoe UI Emoji" font-size="20px" fill="#1e1e1e" text-anchor="start" style="white-space: pre;" direction="ltr" dominant-baseline="alphabetic">CD_PRODUTO</text></g><g transform="translate(924.3062742303066 731.5541099972463) rotate(0 62.233333587646484 12.5)"><text x="0" y="17.52" font-family="Virgil, Segoe UI Emoji" font-size="20px" fill="#1e1e1e" text-anchor="start" style="white-space: pre;" direction="ltr" dominant-baseline="alphabetic">CD_EQUIPE</text></g><g transform="translate(924.3062742303066 764.2683957115319) rotate(0 68.91666412353516 12.5)"><text x="0" y="17.52" font-family="Virgil, Segoe UI Emoji" font-size="20px" fill="#1e1e1e" text-anchor="start" style="white-space: pre;" direction="ltr" dominant-baseline="alphabetic">CD_USUARIO</text></g><g transform="translate(924.3062742303066 798.4112528543891) rotate(0 72 12.5)"><text x="0" y="17.52" font-family="Virgil, Segoe UI Emoji" font-size="20px" fill="#1e1e1e" text-anchor="start" style="white-space: pre;" direction="ltr" dominant-baseline="alphabetic">DT_PERIODO</text></g><g transform="translate(924.3062742303066 829.6969671401033) rotate(0 91.06666564941406 12.5)"><text x="0" y="17.52" font-family="Virgil, Segoe UI Emoji" font-size="20px" fill="#1e1e1e" text-anchor="start" style="white-space: pre;" direction="ltr" dominant-baseline="alphabetic">NR_QUANTIDADE</text></g><g stroke-linecap="round" transform="translate(904.7034005660378 611.5069787019276) rotate(0 109.45146221115408 126.65327236464464)"><path d="M32 0 C77.68 1.39, 124.52 0.27, 186.9 0 M32 0 C69.23 0.14, 105.37 0.03, 186.9 0 M186.9 0 C207.44 -0.71, 219.79 10.69, 218.9 32 M186.9 0 C209.73 -0.59, 217.74 10.87, 218.9 32 M218.9 32 C218.87 98.29, 221.14 162.7, 218.9 221.31 M218.9 32 C221.14 80.04, 220 126.75, 218.9 221.31 M218.9 221.31 C217.94 241.67, 208.93 253.65, 186.9 253.31 M218.9 221.31 C217.06 240.97, 209.65 253.75, 186.9 253.31 M186.9 253.31 C128.81 254.22, 69.03 256.29, 32 253.31 M186.9 253.31 C131.82 252.75, 77 253.11, 32 253.31 M32 253.31 C8.96 254.81, -1.6 241.76, 0 221.31 M32 253.31 C9.87 253.25, -1.24 244.56, 0 221.31 M0 221.31 C1.25 169.66, -0.09 116.86, 0 32 M0 221.31 C1.62 170.29, 0.53 119.74, 0 32 M0 32 C-1.65 10.86, 8.96 1.46, 32 0 M0 32 C-1.57 10.66, 8.9 1.27, 32 0" stroke="#1e1e1e" stroke-width="2" fill="none"></path></g><g transform="translate(575.5356248079281 668.4387496939819) rotate(0 121.38333129882812 12.5)"><text x="0" y="17.52" font-family="Virgil, Segoe UI Emoji" font-size="20px" fill="#1e1e1e" text-anchor="start" style="white-space: pre;" direction="ltr" dominant-baseline="alphabetic">CD_EQUIPE_PRODUTO</text></g><g transform="translate(562.9048065216343 629.5544250861179) rotate(0 138.43333435058594 17.5)"><text x="0" y="24.528" font-family="Virgil, Segoe UI Emoji" font-size="28px" fill="#1e1e1e" text-anchor="start" style="white-space: pre;" direction="ltr" dominant-baseline="alphabetic">EQUIPE_PRODUTO</text></g><g transform="translate(575.5356248079281 703.7311705912696) rotate(0 62.233333587646484 12.5)"><text x="0" y="17.52" font-family="Virgil, Segoe UI Emoji" font-size="20px" fill="#1e1e1e" text-anchor="start" style="white-space: pre;" direction="ltr" dominant-baseline="alphabetic">CD_EQUIPE</text></g><g transform="translate(575.5356248079281 738.0152366057775) rotate(0 73.39167022705078 12.5)"><text x="0" y="17.52" font-family="Virgil, Segoe UI Emoji" font-size="20px" fill="#1e1e1e" text-anchor="start" style="white-space: pre;" direction="ltr" dominant-baseline="alphabetic">CD_PRODUTO</text></g><g stroke-linecap="round" transform="translate(549.7661321120363 618.4207469616435) rotate(0 148.22816776860833 78.65168085681259)"><path d="M32 0 C83.61 -0.12, 133.79 -0.22, 264.46 0 M32 0 C104.04 -1.5, 174.86 -1.24, 264.46 0 M264.46 0 C287.67 -1.38, 298.45 8.73, 296.46 32 M264.46 0 C287.67 -2.19, 294.81 11.94, 296.46 32 M296.46 32 C296.46 65.28, 297.1 103.85, 296.46 125.3 M296.46 32 C297.26 64.1, 296.25 95.99, 296.46 125.3 M296.46 125.3 C297.92 146.16, 285.93 156.65, 264.46 157.3 M296.46 125.3 C296.65 146.1, 287.97 155.72, 264.46 157.3 M264.46 157.3 C209.66 157.27, 156.08 159.56, 32 157.3 M264.46 157.3 C173.41 157.17, 81.58 156.72, 32 157.3 M32 157.3 C12.03 156.54, -0.05 144.89, 0 125.3 M32 157.3 C12.2 155.8, 1.27 148.45, 0 125.3 M0 125.3 C0.6 99.37, -1.98 70.98, 0 32 M0 125.3 C0.9 99.5, 1.68 73.16, 0 32 M0 32 C0.15 12.44, 10.13 -1.7, 32 0 M0 32 C0.21 8.42, 10.47 0.96, 32 0" stroke="#1e1e1e" stroke-width="2" fill="none"></path></g><g transform="translate(206.78196291383608 662.8980742890035) rotate(0 128.8249969482422 12.5)"><text x="0" y="17.52" font-family="Virgil, Segoe UI Emoji" font-size="20px" fill="#1e1e1e" text-anchor="start" style="white-space: pre;" direction="ltr" dominant-baseline="alphabetic">CD_EMPRESA_PRODUTO</text></g><g transform="translate(191.62498097028345 624.0137496811396) rotate(0 148.84165954589844 17.5)"><text x="0" y="24.528" font-family="Virgil, Segoe UI Emoji" font-size="28px" fill="#1e1e1e" text-anchor="start" style="white-space: pre;" direction="ltr" dominant-baseline="alphabetic">EMPRESA_PRODUTO</text></g><g transform="translate(206.78196291383608 698.1904951862912) rotate(0 69.67500305175781 12.5)"><text x="0" y="17.52" font-family="Virgil, Segoe UI Emoji" font-size="20px" fill="#1e1e1e" text-anchor="start" style="white-space: pre;" direction="ltr" dominant-baseline="alphabetic">CD_EMPRESA</text></g><g transform="translate(206.78196291383608 732.4745612007991) rotate(0 73.39167022705078 12.5)"><text x="0" y="17.52" font-family="Virgil, Segoe UI Emoji" font-size="20px" fill="#1e1e1e" text-anchor="start" style="white-space: pre;" direction="ltr" dominant-baseline="alphabetic">CD_PRODUTO</text></g><g stroke-linecap="round" transform="translate(181.01247021794427 612.8800715566651) rotate(0 163.38514971216097 82.44092634270075)"><path d="M32 0 C117.02 -0.93, 201.38 -1.27, 294.77 0 M32 0 C134.42 0.87, 236.46 1.44, 294.77 0 M294.77 0 C315.52 1.52, 327.02 12.1, 326.77 32 M294.77 0 C315.07 -0.09, 327.34 9.42, 326.77 32 M326.77 32 C325.47 61, 328.47 91.65, 326.77 132.88 M326.77 32 C327.59 71.2, 327.08 108.93, 326.77 132.88 M326.77 132.88 C328.35 152.45, 317.57 164.79, 294.77 164.88 M326.77 132.88 C324.51 155.57, 315.76 164.69, 294.77 164.88 M294.77 164.88 C191.61 164.53, 88.79 165.82, 32 164.88 M294.77 164.88 C195.94 163.97, 96.3 163.61, 32 164.88 M32 164.88 C10.65 163.45, -0.35 153.68, 0 132.88 M32 164.88 C9.18 165.87, 0.16 155, 0 132.88 M0 132.88 C-1.58 101.51, -1.23 75.05, 0 32 M0 132.88 C1.44 95.63, -0.37 57.1, 0 32 M0 32 C0.26 9.5, 9.36 -1.87, 32 0 M0 32 C-1.35 10.81, 9.41 1.38, 32 0" stroke="#1e1e1e" stroke-width="2" fill="none"></path></g><g transform="translate(1485.0207734867754 669.2134834321505) rotate(0 116.90833282470703 12.5)"><text x="0" y="17.52" font-family="Virgil, Segoe UI Emoji" font-size="20px" fill="#1e1e1e" text-anchor="start" style="white-space: pre;" direction="ltr" dominant-baseline="alphabetic">CD_EQUIPE_USUARIO</text></g><g transform="translate(1472.3899552004816 630.3291588242867) rotate(0 132.1666717529297 17.5)"><text x="0" y="24.528" font-family="Virgil, Segoe UI Emoji" font-size="28px" fill="#1e1e1e" text-anchor="start" style="white-space: pre;" direction="ltr" dominant-baseline="alphabetic">EQUIPE_USUARIO</text></g><g transform="translate(1485.0207734867754 704.5059043294382) rotate(0 62.233333587646484 12.5)"><text x="0" y="17.52" font-family="Virgil, Segoe UI Emoji" font-size="20px" fill="#1e1e1e" text-anchor="start" style="white-space: pre;" direction="ltr" dominant-baseline="alphabetic">CD_EQUIPE</text></g><g transform="translate(1485.0207734867754 738.7899703439462) rotate(0 68.91666412353516 12.5)"><text x="0" y="17.52" font-family="Virgil, Segoe UI Emoji" font-size="20px" fill="#1e1e1e" text-anchor="start" style="white-space: pre;" direction="ltr" dominant-baseline="alphabetic">CD_USUARIO</text></g><g stroke-linecap="round" transform="translate(1459.2512807908836 619.1954806998122) rotate(0 152.64895416881131 79.91476268544196)"><path d="M32 0 C121.21 -1.24, 206.22 1.36, 273.3 0 M32 0 C93.95 -1.78, 154.11 -1.47, 273.3 0 M273.3 0 C296.41 -0.6, 305.7 9.59, 305.3 32 M273.3 0 C296.33 0.55, 305.66 12, 305.3 32 M305.3 32 C305.02 61.4, 304.14 88.61, 305.3 127.83 M305.3 32 C304.76 66.62, 305.21 101.88, 305.3 127.83 M305.3 127.83 C305.51 149.65, 293.05 159.65, 273.3 159.83 M305.3 127.83 C304.88 150.56, 296.33 157.85, 273.3 159.83 M273.3 159.83 C200.03 160.49, 125.65 161.56, 32 159.83 M273.3 159.83 C208.89 161.7, 143.32 161.28, 32 159.83 M32 159.83 C10.27 159.7, 1.95 150.2, 0 127.83 M32 159.83 C11.32 158.91, 1.89 148.19, 0 127.83 M0 127.83 C-2.14 105.19, -0.44 80.5, 0 32 M0 127.83 C-1.2 104.6, -0.11 80.06, 0 32 M0 32 C1.04 10.13, 11.41 -1.66, 32 0 M0 32 C-2.21 10.26, 10.85 0.05, 32 0" stroke="#1e1e1e" stroke-width="2" fill="none"></path></g><g transform="translate(1848.1567992177236 667.9504016035212) rotate(0 124.3499984741211 12.5)"><text x="0" y="17.52" font-family="Virgil, Segoe UI Emoji" font-size="20px" fill="#1e1e1e" text-anchor="start" style="white-space: pre;" direction="ltr" dominant-baseline="alphabetic">CD_EMPRESA_USUARIO</text></g><g transform="translate(1835.52598093143 629.0660769956573) rotate(0 142.5749969482422 17.5)"><text x="0" y="24.528" font-family="Virgil, Segoe UI Emoji" font-size="28px" fill="#1e1e1e" text-anchor="start" style="white-space: pre;" direction="ltr" dominant-baseline="alphabetic">EMPRESA_USUARIO</text></g><g transform="translate(1848.1567992177236 703.2428225008089) rotate(0 69.67500305175781 12.5)"><text x="0" y="17.52" font-family="Virgil, Segoe UI Emoji" font-size="20px" fill="#1e1e1e" text-anchor="start" style="white-space: pre;" direction="ltr" dominant-baseline="alphabetic">CD_EMPRESA</text></g><g transform="translate(1848.1567992177236 737.5268885153168) rotate(0 68.91666412353516 12.5)"><text x="0" y="17.52" font-family="Virgil, Segoe UI Emoji" font-size="20px" fill="#1e1e1e" text-anchor="start" style="white-space: pre;" direction="ltr" dominant-baseline="alphabetic">CD_USUARIO</text></g><g stroke-linecap="round" transform="translate(1822.387306521832 617.9323988711828) rotate(0 152.64895416881131 79.91476268544196)"><path d="M32 0 C88.11 -2.44, 145.88 -2.48, 273.3 0 M32 0 C104.26 1.91, 176.27 2.22, 273.3 0 M273.3 0 C295.11 -0.81, 304.13 11.32, 305.3 32 M273.3 0 C296.88 -1.88, 303.91 10.45, 305.3 32 M305.3 32 C303.42 60.1, 304.46 93.96, 305.3 127.83 M305.3 32 C304.85 59.93, 306.02 87.47, 305.3 127.83 M305.3 127.83 C306.12 148.49, 292.99 159.65, 273.3 159.83 M305.3 127.83 C304.87 149.86, 294.44 160.55, 273.3 159.83 M273.3 159.83 C197.65 158.06, 124.48 159.54, 32 159.83 M273.3 159.83 C223.56 159.8, 173.14 159.55, 32 159.83 M32 159.83 C9.86 160.69, -1.44 147.52, 0 127.83 M32 159.83 C9.29 159.74, 0.07 149.49, 0 127.83 M0 127.83 C-2.35 105.98, 1.09 83.83, 0 32 M0 127.83 C-1.12 103.78, -0.4 77.41, 0 32 M0 32 C-0.65 9.42, 11.51 -0.44, 32 0 M0 32 C-2.2 12.27, 11.62 1.23, 32 0" stroke="#1e1e1e" stroke-width="2" fill="none"></path></g><g transform="translate(899.5823459170545 371.1261718756154) rotate(0 62.233333587646484 12.5)"><text x="0" y="17.52" font-family="Virgil, Segoe UI Emoji" font-size="20px" fill="#1e1e1e" text-anchor="start" style="white-space: pre;" direction="ltr" dominant-baseline="alphabetic">CD_EQUIPE</text></g><g transform="translate(886.9515276307609 332.2418472677513) rotate(0 55.61666488647461 17.5)"><text x="0" y="24.528" font-family="Virgil, Segoe UI Emoji" font-size="28px" fill="#1e1e1e" text-anchor="start" style="white-space: pre;" direction="ltr" dominant-baseline="alphabetic">EQUIPE</text></g><g transform="translate(899.5823459170545 406.4185927729031) rotate(0 62.09166717529297 12.5)"><text x="0" y="17.52" font-family="Virgil, Segoe UI Emoji" font-size="20px" fill="#1e1e1e" text-anchor="start" style="white-space: pre;" direction="ltr" dominant-baseline="alphabetic">NM_EQUIPE</text></g><g transform="translate(899.5823459170545 440.7026587874111) rotate(0 69.67500305175781 12.5)"><text x="0" y="17.52" font-family="Virgil, Segoe UI Emoji" font-size="20px" fill="#1e1e1e" text-anchor="start" style="white-space: pre;" direction="ltr" dominant-baseline="alphabetic">CD_EMPRESA</text></g><g stroke-linecap="round" transform="translate(873.8128532211629 321.10816914327705) rotate(0 152.64895416881131 79.91476268544196)"><path d="M32 0 C83.9 -0.42, 134.32 -1.39, 273.3 0 M32 0 C85.51 -1.13, 137.82 -0.18, 273.3 0 M273.3 0 C296.53 0.79, 307.11 10.99, 305.3 32 M273.3 0 C295.73 -0.28, 306.78 11.11, 305.3 32 M305.3 32 C306.19 52.91, 303.74 76.22, 305.3 127.83 M305.3 32 C306.39 61.21, 305.65 90.8, 305.3 127.83 M305.3 127.83 C304.34 147.96, 296.26 158.19, 273.3 159.83 M305.3 127.83 C306.66 150.76, 296.73 159.49, 273.3 159.83 M273.3 159.83 C206.89 158.94, 139.91 157.73, 32 159.83 M273.3 159.83 C217.21 158.92, 161.72 158.56, 32 159.83 M32 159.83 C12.39 160.4, -1.53 148.56, 0 127.83 M32 159.83 C12.26 160.61, 1.69 150.41, 0 127.83 M0 127.83 C-0.79 92.01, -2.62 53.56, 0 32 M0 127.83 C1.73 107.24, 0.89 84.99, 0 32 M0 32 C1.05 10.42, 12.2 -0.04, 32 0 M0 32 C-1.81 11.23, 11 -0.96, 32 0" stroke="#1e1e1e" stroke-width="2" fill="none"></path></g><g transform="translate(1411.6635556399826 378.47625614476556) rotate(0 70.3422779873539 12.758575680125645)"><text x="0" y="17.882419673264103" font-family="Virgil, Segoe UI Emoji" font-size="20.41372108820103px" fill="#1e1e1e" text-anchor="start" style="white-space: pre;" direction="ltr" dominant-baseline="alphabetic">CD_USUARIO</text></g><g transform="translate(1398.7714555593752 338.7875682823651) rotate(0 66.32757846837876 17.862005952175902)"><text x="0" y="25.035387542569744" font-family="Virgil, Segoe UI Emoji" font-size="28.579209523481445px" fill="#1e1e1e" text-anchor="start" style="white-space: pre;" direction="ltr" dominant-baseline="alphabetic">USUARIO</text></g><g transform="translate(1411.6635556399826 414.498737980997) rotate(0 70.1976849494946 12.758575680125645)"><text x="0" y="17.882419673264103" font-family="Virgil, Segoe UI Emoji" font-size="20.41372108820103px" fill="#1e1e1e" text-anchor="start" style="white-space: pre;" direction="ltr" dominant-baseline="alphabetic">NM_USUARIO</text></g><g stroke-linecap="round" transform="translate(1385.3609938160644 327.423578286424) rotate(0 155.80665874038482 81.56788381451936)"><path d="M32 0 C90.52 -0.3, 152.45 0.96, 279.61 0 M32 0 C95.96 -0.36, 161.28 -1.43, 279.61 0 M279.61 0 C302.22 -0.35, 310.08 9.48, 311.61 32 M279.61 0 C299.94 1.29, 309.72 10.66, 311.61 32 M311.61 32 C313.89 59.77, 312.88 88.16, 311.61 131.14 M311.61 32 C313.17 62.13, 312.98 91.57, 311.61 131.14 M311.61 131.14 C310.09 150.98, 302.27 162.11, 279.61 163.14 M311.61 131.14 C312.66 151.34, 301.72 161.38, 279.61 163.14 M279.61 163.14 C226.85 165.13, 172.09 163.9, 32 163.14 M279.61 163.14 C226.46 161.83, 171.54 162.64, 32 163.14 M32 163.14 C10.94 161.88, 0.28 150.99, 0 131.14 M32 163.14 C12.01 163.56, -0.74 153.46, 0 131.14 M0 131.14 C-0.13 93.31, 0.21 54.34, 0 32 M0 131.14 C-1.29 109.12, -0.88 88.25, 0 32 M0 32 C-0.35 11.73, 10.19 1.95, 32 0 M0 32 C0.95 11.7, 10.29 -0.57, 32 0" stroke="#1e1e1e" stroke-width="2" fill="none"></path></g><g transform="translate(422.51889958418036 377.08540490669776) rotate(0 73.39167022705078 12.5)"><text x="0" y="17.52" font-family="Virgil, Segoe UI Emoji" font-size="20px" fill="#1e1e1e" text-anchor="start" style="white-space: pre;" direction="ltr" dominant-baseline="alphabetic">CD_PRODUTO</text></g><g transform="translate(409.88808129788646 338.2010802988338) rotate(0 71.25 17.5)"><text x="0" y="24.528" font-family="Virgil, Segoe UI Emoji" font-size="28px" fill="#1e1e1e" text-anchor="start" style="white-space: pre;" direction="ltr" dominant-baseline="alphabetic">PRODUTO</text></g><g transform="translate(422.51889958418036 412.37782580398544) rotate(0 73.25 12.5)"><text x="0" y="17.52" font-family="Virgil, Segoe UI Emoji" font-size="20px" fill="#1e1e1e" text-anchor="start" style="white-space: pre;" direction="ltr" dominant-baseline="alphabetic">NM_PRODUTO</text></g><g transform="translate(422.51889958418036 446.6618918184934) rotate(0 19.741666793823242 12.5)"><text x="0" y="17.52" font-family="Virgil, Segoe UI Emoji" font-size="20px" fill="#1e1e1e" text-anchor="start" style="white-space: pre;" direction="ltr" dominant-baseline="alphabetic">EAN</text></g><g stroke-linecap="round" transform="translate(396.74940688828855 327.06740217435953) rotate(0 148.22816776860833 78.65168085681258)"><path d="M32 0 C116.71 0.65, 203.94 0.54, 264.46 0 M32 0 C100.51 -1.43, 170.75 -0.93, 264.46 0 M264.46 0 C286.79 -0.9, 296.78 12.45, 296.46 32 M264.46 0 C287.54 -0.62, 298.4 11.59, 296.46 32 M296.46 32 C295.37 56.75, 295.04 79.45, 296.46 125.3 M296.46 32 C295.08 53.63, 296.88 76.01, 296.46 125.3 M296.46 125.3 C298.26 147.25, 286.67 156.85, 264.46 157.3 M296.46 125.3 C297.81 146.91, 287.86 156.28, 264.46 157.3 M264.46 157.3 C203.11 157.68, 145.43 157.45, 32 157.3 M264.46 157.3 C180.61 157.8, 95.6 159.17, 32 157.3 M32 157.3 C9.33 158.22, -1.4 148.61, 0 125.3 M32 157.3 C8.98 155.09, -2.01 148.53, 0 125.3 M0 125.3 C-1.71 92.65, 0.87 59.31, 0 32 M0 125.3 C-0.3 92.3, 0.92 59.53, 0 32 M0 32 C-0.82 11.95, 11.15 0.94, 32 0 M0 32 C-0.54 11.63, 12.37 -0.29, 32 0" stroke="#1e1e1e" stroke-width="2" fill="none"></path></g><g transform="translate(893.1684649876192 61.05267785834164) rotate(0 71.40833282470703 12.758575680125645)"><text x="0" y="17.882419673264103" font-family="Virgil, Segoe UI Emoji" font-size="20.41372108820103px" fill="#1e1e1e" text-anchor="start" style="white-space: pre;" direction="ltr" dominant-baseline="alphabetic">CD_EMPRESA</text></g><g transform="translate(880.2763649070121 21.36398999594121) rotate(0 67.2249984741211 17.862005952175906)"><text x="0" y="25.035387542569744" font-family="Virgil, Segoe UI Emoji" font-size="28.579209523481445px" fill="#1e1e1e" text-anchor="start" style="white-space: pre;" direction="ltr" dominant-baseline="alphabetic">EMPRESA</text></g><g transform="translate(893.1684649876192 97.07515969457305) rotate(0 71.26667022705078 12.758575680125645)"><text x="0" y="17.882419673264103" font-family="Virgil, Segoe UI Emoji" font-size="20.41372108820103px" fill="#1e1e1e" text-anchor="start" style="white-space: pre;" direction="ltr" dominant-baseline="alphabetic">NM_EMPRESA</text></g><g stroke-linecap="round" transform="translate(866.8659031637012 10) rotate(0 155.80665874038482 81.56788381451936)"><path d="M32 0 C94.94 -1.24, 161.79 -0.58, 279.61 0 M32 0 C85.16 -0.74, 135.97 -0.87, 279.61 0 M279.61 0 C302.58 -1.06, 313.03 9.72, 311.61 32 M279.61 0 C302.22 -0.79, 311.7 12.8, 311.61 32 M311.61 32 C313.8 60.69, 313.61 94.49, 311.61 131.14 M311.61 32 C312.1 55.83, 311.15 79.29, 311.61 131.14 M311.61 131.14 C312.03 152.18, 301.26 162.18, 279.61 163.14 M311.61 131.14 C310.7 154.46, 299.07 164.04, 279.61 163.14 M279.61 163.14 C200.96 162.05, 119.51 164.76, 32 163.14 M279.61 163.14 C226.66 162.2, 175.09 162.04, 32 163.14 M32 163.14 C9.02 161.95, 1.93 153.42, 0 131.14 M32 163.14 C10.84 161.61, -1.73 150.82, 0 131.14 M0 131.14 C0.67 96.67, 1.32 63.83, 0 32 M0 131.14 C1.36 108.29, 1.63 83.49, 0 32 M0 32 C-1.3 10.85, 11.47 1.94, 32 0 M0 32 C1.36 10.82, 12.79 -0.48, 32 0" stroke="#1e1e1e" stroke-width="2" fill="none"></path></g><g stroke-linecap="round"><g transform="translate(863.427901367811 98.63346103350898) rotate(0 -409.82613131488984 301.6658327410632)"><path d="M0.68 0.96 C-135.99 67.09, -704.35 295.68, -819.83 395.98 C-935.31 496.28, -713.5 568.23, -692.23 602.76 M-0.43 0.42 C-137.28 66.72, -705.97 296.34, -820.87 396.9 C-935.78 497.46, -711.26 569.23, -689.86 603.77" stroke="#1e1e1e" stroke-width="2" fill="none"></path></g><g transform="translate(863.427901367811 98.63346103350898) rotate(0 -409.82613131488984 301.6658327410632)"><path d="M-714.06 597.5 C-704.87 599.04, -700.79 599.63, -689.86 603.77 M-714.06 597.5 C-707.75 600.08, -702.38 600.39, -689.86 603.77" stroke="#1e1e1e" stroke-width="2" fill="none"></path></g><g transform="translate(863.427901367811 98.63346103350898) rotate(0 -409.82613131488984 301.6658327410632)"><path d="M-704.37 583.41 C-698.33 589.45, -697.31 594.48, -689.86 603.77 M-704.37 583.41 C-700.61 589.53, -697.69 593.39, -689.86 603.77" stroke="#1e1e1e" stroke-width="2" fill="none"></path></g></g><mask></mask><g stroke-linecap="round"><g transform="translate(1179.4587737632107 80.04340971613249) rotate(0 476.5813155909235 312.6508630649675)"><path d="M-0.59 1.11 C141.04 59.65, 691.27 247.15, 850.12 351.07 C1008.98 455, 935.24 579.1, 952.56 624.66 M1.31 0.65 C142.75 59.36, 690.84 248.21, 849.2 352.37 C1007.56 456.54, 933.89 580.2, 951.48 625.64" stroke="#1e1e1e" stroke-width="2" fill="none"></path></g><g transform="translate(1179.4587737632107 80.04340971613249) rotate(0 476.5813155909235 312.6508630649675)"><path d="M942.96 602.14 C947.61 610.06, 947.83 616.77, 951.48 625.64 M942.96 602.14 C945.08 608.59, 946.87 613.92, 951.48 625.64" stroke="#1e1e1e" stroke-width="2" fill="none"></path></g><g transform="translate(1179.4587737632107 80.04340971613249) rotate(0 476.5813155909235 312.6508630649675)"><path d="M960.06 602.16 C959.04 610, 953.59 616.69, 951.48 625.64 M960.06 602.16 C957.96 608.48, 955.54 613.81, 951.48 625.64" stroke="#1e1e1e" stroke-width="2" fill="none"></path></g></g><mask></mask><g stroke-linecap="round"><g transform="translate(1000.3182792503103 172.99366630301472) rotate(0 0 68.44518894124968)"><path d="M-0.58 0.75 C-0.68 23.79, -0.85 115.1, -0.71 137.99 M1.31 0.09 C1.62 22.85, 1.91 113.73, 1.64 136.44" stroke="#1e1e1e" stroke-width="2" fill="none"></path></g><g transform="translate(1000.3182792503103 172.99366630301472) rotate(0 0 68.44518894124968)"><path d="M-6.84 112.92 C-3.18 118.62, -0.14 127.11, 1.64 136.44 M-6.84 112.92 C-2.62 122.66, 0.65 132.03, 1.64 136.44" stroke="#1e1e1e" stroke-width="2" fill="none"></path></g><g transform="translate(1000.3182792503103 172.99366630301472) rotate(0 0 68.44518894124968)"><path d="M10.26 112.97 C8.95 118.57, 7.02 127.05, 1.64 136.44 M10.26 112.97 C7.69 122.72, 4.18 132.07, 1.64 136.44" stroke="#1e1e1e" stroke-width="2" fill="none"></path></g></g><mask></mask><g stroke-linecap="round"><g transform="translate(403.7466324290479 481.51362548523116) rotate(0 -32.125367298607586 65.18322303571702)"><path d="M0.89 0.31 C-9.8 21.88, -52.81 109.05, -63.47 130.59 M-0.11 -0.57 C-10.94 21.12, -53.49 106.75, -64.01 128.59" stroke="#1e1e1e" stroke-width="2" fill="none"></path></g><g transform="translate(403.7466324290479 481.51362548523116) rotate(0 -32.125367298607586 65.18322303571702)"><path d="M-61.34 103.73 C-61.52 113.82, -62.61 123.23, -64.01 128.59 M-61.34 103.73 C-62.46 109.21, -62.75 115.78, -64.01 128.59" stroke="#1e1e1e" stroke-width="2" fill="none"></path></g><g transform="translate(403.7466324290479 481.51362548523116) rotate(0 -32.125367298607586 65.18322303571702)"><path d="M-45.99 111.26 C-51.66 118.81, -58.17 125.55, -64.01 128.59 M-45.99 111.26 C-50.75 115.06, -54.62 119.87, -64.01 128.59" stroke="#1e1e1e" stroke-width="2" fill="none"></path></g></g><mask></mask><g stroke-linecap="round"><g transform="translate(574.5114494587367 487.3345340331982) rotate(0 23.42858306751323 62.53017261299351)"><path d="M-1.06 -0.55 C6.64 20.39, 38.05 103.58, 45.88 124.58 M0.58 1.78 C8.68 22.97, 40.12 105.61, 48.08 125.87" stroke="#1e1e1e" stroke-width="2" fill="none"></path></g><g transform="translate(574.5114494587367 487.3345340331982) rotate(0 23.42858306751323 62.53017261299351)"><path d="M31.65 107.03 C35.05 110.69, 39.65 115.94, 48.08 125.87 M31.65 107.03 C37.28 113.72, 43.44 119.29, 48.08 125.87" stroke="#1e1e1e" stroke-width="2" fill="none"></path></g><g transform="translate(574.5114494587367 487.3345340331982) rotate(0 23.42858306751323 62.53017261299351)"><path d="M47.61 100.87 C46.6 106.07, 46.85 113, 48.08 125.87 M47.61 100.87 C47.88 109.71, 48.71 117.33, 48.08 125.87" stroke="#1e1e1e" stroke-width="2" fill="none"></path></g></g><mask></mask><g stroke-linecap="round"><g transform="translate(694.2057424255052 473.5603670282672) rotate(0 104.74882907026625 74.80743159153965)"><path d="M0.98 -0.26 C35.87 24.65, 175.69 124.56, 210.48 149.51 M0.03 -1.44 C34.75 23.65, 175.2 125.65, 210.05 150.99" stroke="#1e1e1e" stroke-width="2" fill="none"></path></g><g transform="translate(694.2057424255052 473.5603670282672) rotate(0 104.74882907026625 74.80743159153965)"><path d="M186.02 144.1 C195.09 148.26, 204.85 149.75, 210.05 150.99 M186.02 144.1 C192.63 144.93, 200.21 148.75, 210.05 150.99" stroke="#1e1e1e" stroke-width="2" fill="none"></path></g><g transform="translate(694.2057424255052 473.5603670282672) rotate(0 104.74882907026625 74.80743159153965)"><path d="M196.07 130.26 C201.17 139.98, 206.96 146.94, 210.05 150.99 M196.07 130.26 C199.8 135.05, 204.55 142.76, 210.05 150.99" stroke="#1e1e1e" stroke-width="2" fill="none"></path></g></g><mask></mask><g stroke-linecap="round"><g transform="translate(876.9479386895393 475.504501376686) rotate(0 -183.36550617594037 69.29019127385766)"><path d="M-0.54 0.93 C-61.37 24.25, -304.98 116.66, -365.83 139.42 M1.37 0.38 C-59.46 23.41, -305.1 114.77, -366.3 137.73" stroke="#1e1e1e" stroke-width="2" fill="none"></path></g><g transform="translate(876.9479386895393 475.504501376686) rotate(0 -183.36550617594037 69.29019127385766)"><path d="M-347.28 121.5 C-350.17 126.66, -354.71 130.74, -366.3 137.73 M-347.28 121.5 C-350.46 125.89, -354.25 128.34, -366.3 137.73" stroke="#1e1e1e" stroke-width="2" fill="none"></path></g><g transform="translate(876.9479386895393 475.504501376686) rotate(0 -183.36550617594037 69.29019127385766)"><path d="M-341.3 137.52 C-345.49 138.97, -351.41 139.36, -366.3 137.73 M-341.3 137.52 C-345.85 138.67, -350.86 137.83, -366.3 137.73" stroke="#1e1e1e" stroke-width="2" fill="none"></path></g></g><mask></mask><g stroke-linecap="round"><g transform="translate(910.7480319938602 485.6445293679824) rotate(0 -76.89521226732984 64.22017727820946)"><path d="M0.32 0.74 C-25.25 22.06, -128.45 107.09, -153.95 128.54 M-0.97 0.09 C-26.67 21.56, -129.66 108.88, -154.98 130.12" stroke="#1e1e1e" stroke-width="2" fill="none"></path></g><g transform="translate(910.7480319938602 485.6445293679824) rotate(0 -76.89521226732984 64.22017727820946)"><path d="M-142.55 108.44 C-144.37 113.74, -148.63 121.37, -154.98 130.12 M-142.55 108.44 C-147.12 117.38, -152.29 125.86, -154.98 130.12" stroke="#1e1e1e" stroke-width="2" fill="none"></path></g><g transform="translate(910.7480319938602 485.6445293679824) rotate(0 -76.89521226732984 64.22017727820946)"><path d="M-131.52 121.51 C-136.23 123.5, -143.3 127.79, -154.98 130.12 M-131.52 121.51 C-140.16 125.5, -149.52 129.01, -154.98 130.12" stroke="#1e1e1e" stroke-width="2" fill="none"></path></g></g><mask></mask><g stroke-linecap="round"><g transform="translate(1010.4583072416069 482.26452003755026) rotate(0 0.845002332607919 60.840167947777445)"><path d="M0.13 -0.86 C0.14 19.66, 0.3 101.5, 0.57 121.96 M-1.26 1.3 C-0.94 21.55, 2.32 99.64, 2.69 119.99" stroke="#1e1e1e" stroke-width="2" fill="none"></path></g><g transform="translate(1010.4583072416069 482.26452003755026) rotate(0 0.845002332607919 60.840167947777445)"><path d="M-6.59 96.77 C-5.07 102.84, 0.01 112.7, 2.69 119.99 M-6.59 96.77 C-4.43 103.52, -1.44 111.59, 2.69 119.99" stroke="#1e1e1e" stroke-width="2" fill="none"></path></g><g transform="translate(1010.4583072416069 482.26452003755026) rotate(0 0.845002332607919 60.840167947777445)"><path d="M10.51 96.24 C6.16 102.51, 5.39 112.55, 2.69 119.99 M10.51 96.24 C7.18 103.09, 4.68 111.33, 2.69 119.99" stroke="#1e1e1e" stroke-width="2" fill="none"></path></g></g><mask></mask><g stroke-linecap="round"><g transform="translate(1108.4785778241367 482.26452003755) rotate(0 91.2602519216664 65.06517961081761)"><path d="M-0.64 -0.79 C29.87 20.93, 152.95 108.43, 183.39 130.13 M1.23 1.41 C31.62 23.36, 152.94 110.17, 182.9 131.67" stroke="#1e1e1e" stroke-width="2" fill="none"></path></g><g transform="translate(1108.4785778241367 482.26452003755) rotate(0 91.2602519216664 65.06517961081761)"><path d="M158.82 124.94 C165.47 128.75, 174.78 128.7, 182.9 131.67 M158.82 124.94 C163.78 126.8, 171.46 128.07, 182.9 131.67" stroke="#1e1e1e" stroke-width="2" fill="none"></path></g><g transform="translate(1108.4785778241367 482.26452003755) rotate(0 91.2602519216664 65.06517961081761)"><path d="M168.78 111.04 C172.11 119.4, 178.11 123.96, 182.9 131.67 M168.78 111.04 C171.36 116.21, 176.6 120.86, 182.9 131.67" stroke="#1e1e1e" stroke-width="2" fill="none"></path></g></g><mask></mask><g stroke-linecap="round"><g transform="translate(1174.3887597675625 473.8144967114699) rotate(0 217.16559948026122 70.98019593907372)"><path d="M1.13 -0.43 C73.66 23.36, 362.2 118.66, 434.58 142.46 M0.26 -1.71 C72.71 21.76, 361.27 116.95, 433.76 140.6" stroke="#1e1e1e" stroke-width="2" fill="none"></path></g><g transform="translate(1174.3887597675625 473.8144967114699) rotate(0 217.16559948026122 70.98019593907372)"><path d="M408.78 141.39 C414.26 141.37, 422.02 142.58, 433.76 140.6 M408.78 141.39 C417.23 141.36, 424.69 141.7, 433.76 140.6" stroke="#1e1e1e" stroke-width="2" fill="none"></path></g><g transform="translate(1174.3887597675625 473.8144967114699) rotate(0 217.16559948026122 70.98019593907372)"><path d="M414.11 125.14 C418.23 129.21, 424.66 134.46, 433.76 140.6 M414.11 125.14 C420.64 130.51, 426.34 136.23, 433.76 140.6" stroke="#1e1e1e" stroke-width="2" fill="none"></path></g></g><mask></mask><g stroke-linecap="round"><g transform="translate(1389.0193522499997 478.8845107071181) rotate(0 -132.6653662194592 70.98019593907372)"><path d="M-0.23 -0.76 C-44.55 22.82, -221.94 118.88, -266.15 142.49 M-1.81 1.46 C-45.73 25.2, -219.79 117.27, -263.87 140.64" stroke="#1e1e1e" stroke-width="2" fill="none"></path></g><g transform="translate(1389.0193522499997 478.8845107071181) rotate(0 -132.6653662194592 70.98019593907372)"><path d="M-247.11 122.09 C-252.93 125.91, -255.5 132.25, -263.87 140.64 M-247.11 122.09 C-250.87 125.41, -255.13 130.25, -263.87 140.64" stroke="#1e1e1e" stroke-width="2" fill="none"></path></g><g transform="translate(1389.0193522499997 478.8845107071181) rotate(0 -132.6653662194592 70.98019593907372)"><path d="M-239.11 137.2 C-247.31 136.75, -252.13 138.85, -263.87 140.64 M-239.11 137.2 C-244.52 137.26, -250.49 138.89, -263.87 140.64" stroke="#1e1e1e" stroke-width="2" fill="none"></path></g></g><mask></mask><g stroke-linecap="round"><g transform="translate(1536.0497581237953 494.0945526940625) rotate(0 -62.53017261299351 62.53017261299351)"><path d="M0.23 0.48 C-20.48 21.12, -103.66 103.64, -124.63 124.25 M-1.11 -0.31 C-21.91 20.42, -104.43 104.48, -125.35 125.37" stroke="#1e1e1e" stroke-width="2" fill="none"></path></g><g transform="translate(1536.0497581237953 494.0945526940625) rotate(0 -62.53017261299351 62.53017261299351)"><path d="M-114.89 102.66 C-116.81 109.48, -121.75 113.95, -125.35 125.37 M-114.89 102.66 C-117.69 108.31, -120.45 113.11, -125.35 125.37" stroke="#1e1e1e" stroke-width="2" fill="none"></path></g><g transform="translate(1536.0497581237953 494.0945526940625) rotate(0 -62.53017261299351 62.53017261299351)"><path d="M-102.74 114.7 C-107.96 118.32, -116.15 119.56, -125.35 125.37 M-102.74 114.7 C-108.36 117.68, -113.86 119.76, -125.35 125.37" stroke="#1e1e1e" stroke-width="2" fill="none"></path></g></g><mask></mask><g stroke-linecap="round"><g transform="translate(1585.0598934150605 492.4045480288464) rotate(0 24.505067645632494 61.68517028038548)"><path d="M0.71 -0.14 C8.63 20.52, 40.28 103.43, 48.26 124.02 M-0.37 -1.27 C7.86 19.04, 42.57 101.24, 50.58 122.24" stroke="#1e1e1e" stroke-width="2" fill="none"></path></g><g transform="translate(1585.0598934150605 492.4045480288464) rotate(0 24.505067645632494 61.68517028038548)"><path d="M33.85 103.67 C39.7 109.08, 47.11 116.45, 50.58 122.24 M33.85 103.67 C38.97 108.89, 43.82 115.83, 50.58 122.24" stroke="#1e1e1e" stroke-width="2" fill="none"></path></g><g transform="translate(1585.0598934150605 492.4045480288464) rotate(0 24.505067645632494 61.68517028038548)"><path d="M49.7 97.26 C49.79 105.09, 51.44 114.8, 50.58 122.24 M49.7 97.26 C50.07 104.27, 50.13 113.15, 50.58 122.24" stroke="#1e1e1e" stroke-width="2" fill="none"></path></g></g><mask></mask></svg>